# xmcd
# 
# Track frame offsets:
#     150
#     20231
#     39889
#     58702
#     75051
#     90972
#     107786
#     126271
#     143602
#     159013
#     177977
# 
# Disc length: 2605
# 
# Revision: 2
# Processed by: cddbd v1.5.2PL0 Copyright (c) Steve Scherf et al.
# Submitted via: fre:ac v1.0.31
# 
DISCID=780a2b0b
DTITLE=Kara Grainger - Shiver and Sigh
DYEAR=2013
DGENRE=Blues
TTITLE0=Little Pack Of Lies
TTITLE1=Shiver and Sigh
TTITLE2=Lost In You
TTITLE3=Shut Down
TTITLE4=I'm Not Ready
TTITLE5=No Way You Can Hurt Me Now
TTITLE6=Holding Out For Love
TTITLE7=C'mon In My Kitchen
TTITLE8=You're The One
TTITLE9=Breaking Up Somebody's Home
TTITLE10=Overdue For The Blues
EXTD=
EXTT0=
EXTT1=
EXTT2=
EXTT3=
EXTT4=
EXTT5=
EXTT6=
EXTT7=
EXTT8=
EXTT9=
EXTT10=
PLAYORDER=
